<svg id="Layer_1" data-name="Layer 1" xmlns="http://www.w3.org/2000/svg" viewBox="0 0 627.3 83.3"><defs><style>.cls-1{fill:#1d1d1b;}.cls-2{fill:#a7c947;}.cls-3{fill:#232321;}</style></defs><path class="cls-1" d="M590.86,413.77v-29.1H585v-4.42h5.9v-1a12.22,12.22,0,0,1,.85-4.78,9.18,9.18,0,0,1,2.43-3.51,10.26,10.26,0,0,1,3.87-2.19,16.52,16.52,0,0,1,5.14-.73,18.12,18.12,0,0,1,4.39.53l-.35,4.64c-.48-.08-1-.15-1.64-.2s-1.21-.08-1.81-.08a6.63,6.63,0,0,0-4.8,1.63,6.07,6.07,0,0,0-1.69,4.65v1h6.3v4.46h-6.3v29.1Z" transform="translate(-339.83 -343.01)"/><path class="cls-1" d="M480.92,402.62a7,7,0,0,0-.54-2.79,5.7,5.7,0,0,0-1.89-2.21,16.07,16.07,0,0,0-3.68-1.85,58.43,58.43,0,0,0-5.87-1.81,53.14,53.14,0,0,1-6.75-2.19A22.81,22.81,0,0,1,457,389a11.59,11.59,0,0,1-3.26-3.64,9.39,9.39,0,0,1-1.14-4.67,9.88,9.88,0,0,1,1.23-4.87,11.91,11.91,0,0,1,3.47-3.9,17.14,17.14,0,0,1,5.38-2.58,24.67,24.67,0,0,1,7-.93,23,23,0,0,1,7.59,1.1,17.84,17.84,0,0,1,5.58,3,13,13,0,0,1,3.42,4.4,12,12,0,0,1,1.17,5.11h-6.66a9.32,9.32,0,0,0-.68-3.5,7.44,7.44,0,0,0-2.05-2.78,9.73,9.73,0,0,0-3.45-1.83,19,19,0,0,0-9.53-.09,9.43,9.43,0,0,0-3.25,1.53,6.24,6.24,0,0,0-1.9,2.3,6.8,6.8,0,0,0-.62,2.91,5,5,0,0,0,.67,2.6,6.77,6.77,0,0,0,2.09,2.17,16.78,16.78,0,0,0,3.64,1.83,49.26,49.26,0,0,0,5.34,1.66,50.58,50.58,0,0,1,7.39,2.4,21,21,0,0,1,5.13,3,11.39,11.39,0,0,1,3,3.75,10.89,10.89,0,0,1,1,4.7,10.13,10.13,0,0,1-1.24,5,11.53,11.53,0,0,1-3.54,3.81,17.76,17.76,0,0,1-5.51,2.34,28.71,28.71,0,0,1-7.2.85,27.56,27.56,0,0,1-4.63-.39,25,25,0,0,1-4.44-1.16,21,21,0,0,1-3.93-1.92,14.4,14.4,0,0,1-3.16-2.66,11.58,11.58,0,0,1-2.11-3.41,10.91,10.91,0,0,1-.76-4.15h6.67a7.29,7.29,0,0,0,1,4,8.28,8.28,0,0,0,2.72,2.74,12.67,12.67,0,0,0,3.94,1.6,20.4,20.4,0,0,0,4.68.51c3.5,0,6.16-.64,8-1.92A6,6,0,0,0,480.92,402.62Z" transform="translate(-339.83 -343.01)"/><path class="cls-1" d="M507.23,410a10.59,10.59,0,0,0,3.25-.49,10.16,10.16,0,0,0,2.74-1.36,7.61,7.61,0,0,0,1.94-2.06,6.1,6.1,0,0,0,.88-2.59h6a9.34,9.34,0,0,1-1.36,4.26,13.23,13.23,0,0,1-3.23,3.56,16.42,16.42,0,0,1-4.65,2.44,17.05,17.05,0,0,1-5.61.92,18.23,18.23,0,0,1-7.34-1.35,14.54,14.54,0,0,1-8.28-9,19.93,19.93,0,0,1-1-6.41v-1.3a19.93,19.93,0,0,1,1-6.41,14.56,14.56,0,0,1,8.27-9,18.33,18.33,0,0,1,7.32-1.34,18,18,0,0,1,6,.92,14.61,14.61,0,0,1,4.63,2.56,12,12,0,0,1,3.06,3.85,12.5,12.5,0,0,1,1.24,4.8h-6a8.26,8.26,0,0,0-.81-2.89,8,8,0,0,0-1.87-2.33,8.71,8.71,0,0,0-2.71-1.59,9.76,9.76,0,0,0-3.5-.59,10.31,10.31,0,0,0-4.89,1.06,8.81,8.81,0,0,0-3.14,2.77,10.79,10.79,0,0,0-1.68,3.87,19.66,19.66,0,0,0-.48,4.32v1.3a19,19,0,0,0,.48,4.38,11,11,0,0,0,1.66,3.86,8.73,8.73,0,0,0,3.16,2.75A10.56,10.56,0,0,0,507.23,410Z" transform="translate(-339.83 -343.01)"/><path class="cls-1" d="M546,409.15h23.82V414H539.31V368.32H546Z" transform="translate(-339.83 -343.01)"/><path class="cls-1" d="M621.13,414.36a19.72,19.72,0,0,1-7.06-1.21,15.55,15.55,0,0,1-5.4-3.36,14.51,14.51,0,0,1-3.46-5.12,17,17,0,0,1-1.21-6.5v-1.3a18.34,18.34,0,0,1,1.37-7.31,16.14,16.14,0,0,1,3.64-5.41,15.7,15.7,0,0,1,5.22-3.38,16.37,16.37,0,0,1,6.08-1.14,17.16,17.16,0,0,1,6.9,1.25,13.09,13.09,0,0,1,4.78,3.45,14.16,14.16,0,0,1,2.78,5.2,22.88,22.88,0,0,1,.9,6.53v2.57H610.39a12.93,12.93,0,0,0,.85,4.34,10.3,10.3,0,0,0,5.66,5.85,11.41,11.41,0,0,0,4.58.86,12.24,12.24,0,0,0,5.73-1.23,14.2,14.2,0,0,0,4.1-3.29l3.9,2.73a17.12,17.12,0,0,1-2.18,2.4,15,15,0,0,1-3,2.07,16.84,16.84,0,0,1-3.92,1.46A20.94,20.94,0,0,1,621.13,414.36Zm-.79-30a9.39,9.39,0,0,0-3.56.64,8.73,8.73,0,0,0-2.9,1.84,9.41,9.41,0,0,0-2.12,3A13.85,13.85,0,0,0,610.6,394h18.71v-.44a15.55,15.55,0,0,0-.6-3.31,8.83,8.83,0,0,0-1.55-2.94,7.93,7.93,0,0,0-2.71-2.1,9.4,9.4,0,0,0-4.14-.84Z" transform="translate(-339.83 -343.01)"/><path class="cls-1" d="M646.85,408.88h23.82v4.89H640.18V368.05h6.67Z" transform="translate(-339.83 -343.01)"/><path class="cls-1" d="M697,413.77a5.48,5.48,0,0,1-.55-1.56c-.14-.63-.25-1.29-.35-2a16.81,16.81,0,0,1-2,1.59,15.77,15.77,0,0,1-2.45,1.34,14.75,14.75,0,0,1-2.88.89,17.22,17.22,0,0,1-8.48-.45,12.27,12.27,0,0,1-4-2.1,9.32,9.32,0,0,1-2.54-3.14,8.6,8.6,0,0,1-.89-3.89A9.38,9.38,0,0,1,674,399.7a9.68,9.68,0,0,1,3.37-3.45,16.81,16.81,0,0,1,5.3-2.11,31.69,31.69,0,0,1,6.94-.71H696v-2.66a6.14,6.14,0,0,0-2-4.78q-2-1.78-5.91-1.78a11.68,11.68,0,0,0-3.28.43,8.67,8.67,0,0,0-2.53,1.16,5.51,5.51,0,0,0-1.64,1.69,3.65,3.65,0,0,0-.59,2h-6.42a6.91,6.91,0,0,1,1-3.56,10.67,10.67,0,0,1,3-3.17,15.81,15.81,0,0,1,4.68-2.25,19.86,19.86,0,0,1,6.13-.88,21.29,21.29,0,0,1,5.61.69,12.57,12.57,0,0,1,4.41,2.11,10,10,0,0,1,2.85,3.51,11.27,11.27,0,0,1,1,4.92v15.57a19.54,19.54,0,0,0,.33,3.58,11.43,11.43,0,0,0,1,3.23v.53Zm-10.6-4.37a11.94,11.94,0,0,0,3.25-.43,12.75,12.75,0,0,0,2.76-1.2,10.11,10.11,0,0,0,2.16-1.59,7.88,7.88,0,0,0,1.43-1.86v-6.83h-5.32q-5.49,0-8.46,1.53a4.92,4.92,0,0,0-3,4.63,5.47,5.47,0,0,0,.45,2.26,4.66,4.66,0,0,0,1.4,1.86,7.12,7.12,0,0,0,2.28,1.16,9.51,9.51,0,0,0,3.05.44Z" transform="translate(-339.83 -343.01)"/><path class="cls-1" d="M739.81,397.36a23,23,0,0,1-1,6.8,15.88,15.88,0,0,1-2.83,5.38,13,13,0,0,1-4.56,3.55,14.32,14.32,0,0,1-6.11,1.27,16,16,0,0,1-6.39-1.16,12.46,12.46,0,0,1-4.56-3.33l-.31,3.9h-5.87V368.05h6.39v15.88a12.47,12.47,0,0,1,4.49-3.16,15.71,15.71,0,0,1,6.18-1.11,15,15,0,0,1,6.23,1.23,12.77,12.77,0,0,1,4.56,3.49,15.7,15.7,0,0,1,2.81,5.39,23.7,23.7,0,0,1,1,7Zm-6.39-.65a20.82,20.82,0,0,0-.52-4.72,11.45,11.45,0,0,0-1.67-3.88,8.22,8.22,0,0,0-3-2.65,9.76,9.76,0,0,0-4.56-1,11.7,11.7,0,0,0-3.18.4A9.54,9.54,0,0,0,718,386a8.67,8.67,0,0,0-2,1.67,10.5,10.5,0,0,0-1.44,2.13v14.47a11.1,11.1,0,0,0,1.47,2.07,8.67,8.67,0,0,0,2,1.67,9.26,9.26,0,0,0,2.53,1.12,11.7,11.7,0,0,0,3.18.4,9.42,9.42,0,0,0,4.42-1,8.54,8.54,0,0,0,3-2.6A11.31,11.31,0,0,0,732.9,402a19.71,19.71,0,0,0,.55-4.72Z" transform="translate(-339.83 -343.01)"/><path class="cls-1" d="M533.4,414H527v-33.5h6.38Z" transform="translate(-339.83 -343.01)"/><circle class="cls-1" cx="190.36" cy="29.07" r="3.76"/><circle class="cls-1" cx="237.77" cy="28.8" r="3.76"/><path class="cls-1" d="M580.81,413.77h-6.39V380.25h6.39Z" transform="translate(-339.83 -343.01)"/><path class="cls-2" d="M394.55,392a10.43,10.43,0,0,0,.47-7.51h0a.75.75,0,0,0-.08-.24v-.08a.21.21,0,0,0-.05-.14V384c-.62-2-2.09-3.78-3.79-5.86-2.09-2.55-4.45-5.44-5.68-9.32s-.91-7.3-.66-10.4c.22-2.65.42-5.16-.3-7.47h0v-.05a.43.43,0,0,1,0-.16v-.08l-.07-.25a1.56,1.56,0,0,0-.17-.5v-.07c-.06-.15-.11-.29-.17-.43h0a10.49,10.49,0,0,0-11.91-6.12h0l-.46.11h-.06l-.52.14a10.42,10.42,0,0,0-6.13,5.16c-.16.31-.31.62-.44.94a10.34,10.34,0,0,0-.75,4,10.63,10.63,0,0,0,.53,3.06h0a1.09,1.09,0,0,0,.07.24v.3c.62,2,2.09,3.77,3.79,5.85,2.09,2.55,4.45,5.44,5.68,9.33s1,7.65.72,11c-.2,2.67-.37,5,.25,6.91h0v.06a.38.38,0,0,0,0,.15v.09a1.13,1.13,0,0,0,.08.24,1.69,1.69,0,0,0,.13.42,10.59,10.59,0,0,0,19.28,1.22A4.16,4.16,0,0,0,394.55,392Z" transform="translate(-339.83 -343.01)"/><path class="cls-2" d="M426,365.7a12.41,12.41,0,0,0-22.58,4l-.06.3v.3h0c-.54,2.39-.09,5.11.43,8.26.63,3.88,1.35,8.27.3,13s-3.57,8.46-5.79,11.73c-1.79,2.63-3.33,4.9-3.85,7.25h0v.06c0,.06,0,.13-.05.19v.1a1.53,1.53,0,0,1-.07.29A12.41,12.41,0,0,0,413,424.43a12.71,12.71,0,0,0,1.93-1.51,12.44,12.44,0,0,0,3.52-6.27h0l.06-.29v-.1a.74.74,0,0,1,0-.21h0V416h0c.54-2.4.09-5.13-.43-8.28-.63-3.87-1.35-8.26-.3-13s3.48-8.1,5.55-11.15c1.8-2.6,3.5-5.06,4.12-7.86v-.36a.48.48,0,0,1,.07-.3A12.37,12.37,0,0,0,426,365.7Z" transform="translate(-339.83 -343.01)"/><path class="cls-2" d="M356.13,370.11a11.18,11.18,0,1,0,5.47,6.55,11.18,11.18,0,0,0-5.47-6.55Z" transform="translate(-339.83 -343.01)"/><path class="cls-3" d="M829.59,371.84a2.48,2.48,0,0,1-.69.79,1.44,1.44,0,0,1-.89.26,2.53,2.53,0,0,1-1.4-.59,22.9,22.9,0,0,0-2-1.31,16.25,16.25,0,0,0-2.91-1.32,12.66,12.66,0,0,0-4.11-.59,12,12,0,0,0-4,.61,8.61,8.61,0,0,0-2.9,1.66,6.94,6.94,0,0,0-1.77,2.47,7.8,7.8,0,0,0-.59,3.06,5.69,5.69,0,0,0,1,3.49,9,9,0,0,0,2.73,2.36,21.05,21.05,0,0,0,3.85,1.7l4.41,1.48c1.5.52,3,1.09,4.41,1.73a15.84,15.84,0,0,1,3.85,2.44,11.15,11.15,0,0,1,2.73,3.6,12,12,0,0,1,1,5.25,16.83,16.83,0,0,1-1.12,6.18,14.26,14.26,0,0,1-3.27,5,15.17,15.17,0,0,1-5.29,3.36,19.36,19.36,0,0,1-7.12,1.23,21.68,21.68,0,0,1-8.89-1.77,20.82,20.82,0,0,1-6.82-4.78l2-3.22a2.64,2.64,0,0,1,.68-.65,1.63,1.63,0,0,1,.89-.26,2,2,0,0,1,1,.37c.39.25.83.55,1.32.93s1,.78,1.68,1.22a13.63,13.63,0,0,0,2.15,1.23,14.29,14.29,0,0,0,2.75.92,14.63,14.63,0,0,0,3.46.37,13.05,13.05,0,0,0,4.31-.66,9.22,9.22,0,0,0,3.2-1.88,8.14,8.14,0,0,0,2-2.88,9.6,9.6,0,0,0,.7-3.75,6.24,6.24,0,0,0-1-3.72,8.65,8.65,0,0,0-2.71-2.44,18.91,18.91,0,0,0-3.85-1.66l-4.41-1.4a45.85,45.85,0,0,1-4.41-1.66,14.28,14.28,0,0,1-3.85-2.45,11.41,11.41,0,0,1-2.72-3.76,13.58,13.58,0,0,1-1-5.59,13.4,13.4,0,0,1,1-5.14,13.22,13.22,0,0,1,3-4.41,14.59,14.59,0,0,1,4.87-3.08,17.71,17.71,0,0,1,6.63-1.16,21.25,21.25,0,0,1,7.65,1.33,18.09,18.09,0,0,1,6.07,3.85Z" transform="translate(-339.83 -343.01)"/><path class="cls-3" d="M869,409.19a12,12,0,0,1-2.77,2.43,16.77,16.77,0,0,1-3.45,1.7,23,23,0,0,1-3.79,1,23.49,23.49,0,0,1-3.89.33,18.16,18.16,0,0,1-6.77-1.24,15,15,0,0,1-5.36-3.64,16.78,16.78,0,0,1-3.51-5.94,24.08,24.08,0,0,1-1.26-8.12,20.9,20.9,0,0,1,1.13-6.93,16.37,16.37,0,0,1,3.28-5.58,15,15,0,0,1,5.21-3.71,17.1,17.1,0,0,1,6.93-1.35,16,16,0,0,1,5.9,1.07,13.34,13.34,0,0,1,4.69,3.08,14.14,14.14,0,0,1,3.1,5,19.09,19.09,0,0,1,1.12,6.74,4.06,4.06,0,0,1-.32,2,1.3,1.3,0,0,1-1.19.49H844.36a21,21,0,0,0,.92,5.84,11.78,11.78,0,0,0,2.3,4.15,9.22,9.22,0,0,0,3.5,2.49,12.17,12.17,0,0,0,4.55.82,13.4,13.4,0,0,0,4-.54,19.83,19.83,0,0,0,2.92-1.18,22.58,22.58,0,0,0,2-1.17,2.72,2.72,0,0,1,1.42-.54,1.39,1.39,0,0,1,1.19.59Zm-5-16.63a12.24,12.24,0,0,0-.62-4,8.89,8.89,0,0,0-1.78-3.12,7.88,7.88,0,0,0-2.85-2,10.79,10.79,0,0,0-10.91,1.89,12.21,12.21,0,0,0-3.23,7.22Z" transform="translate(-339.83 -343.01)"/><path class="cls-3" d="M883.1,385.81a16.05,16.05,0,0,1,4.13-5.69,9.07,9.07,0,0,1,6-2.05,9,9,0,0,1,2.15.25,5.73,5.73,0,0,1,1.84.77l-.46,4.65a1,1,0,0,1-1,.88,7.25,7.25,0,0,1-1.43-.21,10,10,0,0,0-2.14-.21,8.41,8.41,0,0,0-3,.49,6.9,6.9,0,0,0-2.35,1.45,10.6,10.6,0,0,0-1.85,2.38,19.55,19.55,0,0,0-1.49,3.24v22.4h-6.26V378.7h3.57a2,2,0,0,1,1.4.39,2.36,2.36,0,0,1,.52,1.33Z" transform="translate(-339.83 -343.01)"/><path class="cls-3" d="M933.05,378.7l-14.46,35.46H913L898.54,378.7h5.07a2,2,0,0,1,1.26.39,1.91,1.91,0,0,1,.67.91l9,22.82c.28.86.53,1.7.74,2.52s.4,1.63.59,2.45c.19-.82.39-1.64.6-2.45s.46-1.66.77-2.52l9.1-22.82a2,2,0,0,1,.7-.93,1.88,1.88,0,0,1,1.15-.37Z" transform="translate(-339.83 -343.01)"/><path class="cls-3" d="M966.58,409.19a12,12,0,0,1-2.77,2.43,16.77,16.77,0,0,1-3.45,1.7,23,23,0,0,1-3.79,1,23.49,23.49,0,0,1-3.89.33,18.16,18.16,0,0,1-6.77-1.24,15,15,0,0,1-5.36-3.64,16.78,16.78,0,0,1-3.51-5.94,24.08,24.08,0,0,1-1.26-8.12,20.9,20.9,0,0,1,1.13-6.93,16.37,16.37,0,0,1,3.28-5.58,15,15,0,0,1,5.21-3.71,17.07,17.07,0,0,1,6.93-1.35,16,16,0,0,1,5.9,1.07,13.34,13.34,0,0,1,4.69,3.08,14.14,14.14,0,0,1,3.1,5,19.09,19.09,0,0,1,1.12,6.74,4.06,4.06,0,0,1-.32,2,1.3,1.3,0,0,1-1.19.49H941.94a21,21,0,0,0,.92,5.84,11.78,11.78,0,0,0,2.3,4.15,9.22,9.22,0,0,0,3.5,2.49,12.17,12.17,0,0,0,4.55.82,13.4,13.4,0,0,0,4-.54,20.29,20.29,0,0,0,2.92-1.18,22.58,22.58,0,0,0,2.05-1.17,2.72,2.72,0,0,1,1.42-.54,1.39,1.39,0,0,1,1.19.59Zm-5-16.63a12.24,12.24,0,0,0-.62-4,9,9,0,0,0-1.78-3.12,7.88,7.88,0,0,0-2.85-2,10.79,10.79,0,0,0-10.91,1.89,12.21,12.21,0,0,0-3.23,7.22Z" transform="translate(-339.83 -343.01)"/></svg>