<svg width="722" height="105" viewBox="0 0 722 105" fill="none" xmlns="http://www.w3.org/2000/svg">
<path d="M241.305 98.119C233.139 98.119 226.393 96.3942 221.065 92.9445C215.782 89.4948 212.507 84.6915 211.24 78.5345L218.969 77.2245C220.061 81.4165 222.637 84.757 226.698 87.246C230.759 89.735 235.737 90.9795 241.632 90.9795C247.484 90.9795 252.134 89.735 255.584 87.246C259.033 84.757 260.758 81.351 260.758 77.028C260.758 74.67 260.212 72.7487 259.121 71.264C258.073 69.7357 255.977 68.3383 252.833 67.072C249.689 65.8057 245.016 64.321 238.816 62.618C232.266 60.8713 227.135 59.1247 223.423 57.378C219.755 55.6313 217.157 53.6445 215.629 51.4175C214.144 49.1905 213.402 46.4613 213.402 43.23C213.402 39.3437 214.515 35.9377 216.742 33.012C218.969 30.0427 222.07 27.7283 226.043 26.069C230.061 24.4097 234.689 23.58 239.929 23.58C245.169 23.58 249.885 24.4533 254.077 26.2C258.269 27.903 261.653 30.3047 264.23 33.405C266.806 36.4617 268.291 40.0205 268.684 44.0815L260.955 45.5225C260.212 40.9812 257.92 37.4005 254.077 34.7805C250.235 32.1168 245.431 30.7632 239.667 30.7195C234.209 30.6322 229.755 31.7238 226.305 33.9945C222.856 36.2215 221.131 39.169 221.131 42.837C221.131 44.933 221.72 46.7233 222.899 48.208C224.122 49.649 226.262 50.9808 229.318 52.2035C232.375 53.4262 236.698 54.7362 242.287 56.1335C249.099 57.8802 254.405 59.6705 258.204 61.5045C262.046 63.3385 264.754 65.5 266.326 67.989C267.898 70.4343 268.684 73.4692 268.684 77.0935C268.684 83.6435 266.238 88.7962 261.348 92.5515C256.501 96.2632 249.82 98.119 241.305 98.119Z" fill="#040404"/>
<path d="M312.114 98.25C305.04 98.25 299.08 96.678 294.233 93.534C289.386 90.3463 285.696 85.9578 283.163 80.3685C280.674 74.7355 279.386 68.251 279.299 60.915C279.386 53.448 280.696 46.9198 283.229 41.3305C285.805 35.6975 289.517 31.3308 294.364 28.2305C299.211 25.1302 305.149 23.58 312.18 23.58C319.035 23.58 325.062 25.2393 330.258 28.558C335.498 31.833 339.122 36.3525 341.131 42.1165L333.795 44.802C332.005 40.3917 329.188 36.9857 325.345 34.584C321.503 32.1387 317.092 30.916 312.114 30.916C306.525 30.916 301.918 32.2042 298.294 34.7805C294.669 37.3132 291.962 40.8283 290.172 45.326C288.381 49.8237 287.443 55.02 287.355 60.915C287.486 69.954 289.604 77.2245 293.709 82.7265C297.857 88.1848 303.992 90.914 312.114 90.914C317.136 90.914 321.481 89.7568 325.149 87.4425C328.861 85.1282 331.699 81.7658 333.664 77.3555L341.131 79.91C338.38 85.8923 334.537 90.4555 329.603 93.5995C324.669 96.6998 318.839 98.25 312.114 98.25Z" fill="#040404"/>
<path d="M375.05 98.25C369.591 98.25 365.05 97.2893 361.426 95.368C357.845 93.4467 355.159 90.914 353.369 87.77C351.579 84.5823 350.684 81.1327 350.684 77.421C350.684 73.4037 351.513 70.0413 353.173 67.334C354.876 64.6267 357.124 62.4433 359.919 60.784C362.757 59.1247 365.88 57.8802 369.286 57.0505C373.172 56.1772 377.364 55.4348 381.862 54.8235C386.359 54.1685 390.639 53.6008 394.7 53.1205C398.804 52.6402 402.145 52.2253 404.721 51.876L401.97 53.5135C402.145 45.8718 400.704 40.1952 397.647 36.4835C394.634 32.7282 389.307 30.8505 381.665 30.8505C376.294 30.8505 371.862 32.0732 368.369 34.5185C364.919 36.9202 362.495 40.6537 361.098 45.719L353.369 43.5575C354.985 37.1385 358.238 32.2042 363.129 28.7545C368.019 25.3048 374.285 23.58 381.927 23.58C388.433 23.58 393.892 24.8463 398.302 27.379C402.756 29.9117 405.856 33.4705 407.603 38.0555C408.345 39.9332 408.848 42.1383 409.11 44.671C409.372 47.16 409.503 49.6708 409.503 52.2035V96.285H402.625V77.683L405.18 78.338C403.04 84.7133 399.306 89.6258 393.979 93.0755C388.652 96.5252 382.342 98.25 375.05 98.25ZM375.443 91.307C380.246 91.307 384.46 90.4555 388.084 88.7525C391.708 87.0058 394.634 84.5823 396.861 81.482C399.132 78.338 400.573 74.6482 401.184 70.4125C401.621 68.0545 401.861 65.5 401.905 62.749C401.948 59.998 401.97 57.9675 401.97 56.6575L405.245 58.7535C402.407 59.1028 399.001 59.474 395.027 59.867C391.097 60.26 387.08 60.7403 382.975 61.308C378.87 61.8757 375.159 62.5962 371.84 63.4695C369.788 64.0372 367.714 64.8668 365.618 65.9585C363.565 67.0065 361.84 68.4693 360.443 70.347C359.089 72.2247 358.413 74.6045 358.413 77.4865C358.413 79.6262 358.937 81.7658 359.985 83.9055C361.076 86.0452 362.867 87.8137 365.356 89.211C367.845 90.6083 371.207 91.307 375.443 91.307Z" fill="#040404"/>
<path d="M427.82 96.285V0H435.353V96.285H427.82Z" fill="#040404"/>
<path d="M484.186 98.25C477.418 98.25 471.566 96.7435 466.632 93.7305C461.698 90.6738 457.877 86.3727 455.169 80.827C452.462 75.2377 451.108 68.644 451.108 61.046C451.108 53.317 452.44 46.6578 455.104 41.0685C457.811 35.4355 461.61 31.1125 466.501 28.0995C471.435 25.0865 477.287 23.58 484.055 23.58C490.911 23.58 496.762 25.152 501.609 28.296C506.5 31.3963 510.211 35.894 512.744 41.789C515.32 47.684 516.543 54.7798 516.412 63.0765H508.552V60.4565C508.334 50.7625 506.15 43.3828 502.002 38.3175C497.854 33.2522 491.915 30.7195 484.186 30.7195C476.195 30.7195 470.016 33.3613 465.649 38.645C461.326 43.885 459.165 51.3083 459.165 60.915C459.165 70.4343 461.326 77.814 465.649 83.054C470.016 88.294 476.151 90.914 484.055 90.914C489.513 90.914 494.273 89.6477 498.334 87.115C502.439 84.5387 505.692 80.8707 508.093 76.111L514.905 79.124C512.067 85.2373 507.962 89.9533 502.591 93.272C497.22 96.5907 491.085 98.25 484.186 98.25ZM456.283 63.0765V56.2645H512.154V63.0765H456.283Z" fill="#040404"/>
<path d="M559.917 98.25C552.887 98.25 546.926 96.6562 542.036 93.4685C537.145 90.2808 533.412 85.8705 530.835 80.2375C528.259 74.6045 526.971 68.12 526.971 60.784C526.971 53.4043 528.281 46.9198 530.901 41.3305C533.521 35.6975 537.276 31.3308 542.167 28.2305C547.101 25.1302 553.018 23.58 559.917 23.58C566.948 23.58 572.908 25.1738 577.799 28.3615C582.733 31.5055 586.467 35.8722 588.999 41.4615C591.576 47.0508 592.864 53.4917 592.864 60.784C592.864 68.251 591.576 74.801 588.999 80.434C586.423 86.0233 582.668 90.39 577.733 93.534C572.799 96.678 566.86 98.25 559.917 98.25ZM559.917 90.914C568.258 90.914 574.48 88.1193 578.585 82.53C582.733 76.9407 584.807 69.692 584.807 60.784C584.807 51.7013 582.733 44.4527 578.585 39.038C574.436 33.6233 568.214 30.916 559.917 30.916C554.284 30.916 549.634 32.2042 545.966 34.7805C542.298 37.3132 539.547 40.8283 537.713 45.326C535.922 49.78 535.027 54.9327 535.027 60.784C535.027 69.8667 537.123 77.159 541.315 82.661C545.551 88.163 551.752 90.914 559.917 90.914Z" fill="#040404"/>
<path d="M634.457 97.9225C630.571 97.9225 627.078 97.3548 623.977 96.2195C620.921 95.0842 618.257 93.4903 615.986 91.438C613.716 89.342 611.838 86.8967 610.353 84.102C608.869 81.2637 607.755 78.1633 607.013 74.801C606.314 71.4387 605.965 67.9235 605.965 64.2555V25.545H613.563V62.356C613.563 66.81 613.999 70.7837 614.873 74.277C615.79 77.7703 617.143 80.7397 618.934 83.185C620.768 85.6303 623.038 87.4862 625.746 88.7525C628.497 90.0188 631.728 90.652 635.44 90.652C639.282 90.652 642.601 89.997 645.396 88.687C648.234 87.3333 650.548 85.4557 652.339 83.054C654.173 80.6523 655.526 77.814 656.4 74.539C657.317 71.2203 657.775 67.6178 657.775 63.7315L663.736 64.452C663.736 72.0937 662.426 78.4035 659.806 83.3815C657.229 88.3158 653.736 91.9838 649.326 94.3855C644.915 96.7435 639.959 97.9225 634.457 97.9225ZM658.496 96.285V80.3685H657.775V25.545H665.373V96.285H658.496Z" fill="#040404"/>
<path d="M721.18 96.285C717.425 97.1147 713.713 97.4203 710.045 97.202C706.377 97.0273 703.102 96.2195 700.22 94.7785C697.382 93.2938 695.242 91.0232 693.801 87.9665C692.622 85.4775 691.967 82.9667 691.836 80.434C691.705 77.9013 691.64 74.9975 691.64 71.7225V5.895H699.238V71.5915C699.238 74.5608 699.26 77.028 699.303 78.993C699.391 80.9143 699.849 82.6828 700.679 84.2985C702.251 87.3115 704.74 89.1455 708.146 89.8005C711.552 90.4118 715.897 90.3027 721.18 89.473V96.285ZM675.789 32.4225V25.545H721.18V32.4225H675.789Z" fill="#040404"/>
<path d="M131.053 90.6516C122.324 90.6516 114.054 87.2059 107.966 81.1184L111.986 77.0984C117.04 82.1522 123.817 85.0236 131.053 85.0236C138.289 85.0236 145.065 82.267 150.119 77.0984C155.173 72.0447 158.044 65.268 158.044 58.032C158.044 50.7959 155.288 44.0193 150.119 38.9656C145.065 33.9118 138.289 31.0404 131.053 31.0404C123.817 31.0404 117.04 33.797 111.986 38.9656L69.8335 81.1184C63.6312 87.3208 55.4763 90.6516 46.7471 90.6516C38.0179 90.6516 29.7481 87.2059 23.6607 81.1184C17.4583 74.9161 14.1274 66.7612 14.1274 58.032C14.1274 49.3028 17.5732 41.033 23.6607 34.9455C29.863 28.7432 38.0179 25.4124 46.7471 25.4124C55.4763 25.4124 63.746 28.8581 69.8335 34.9455L65.8135 38.9656C60.7597 33.9118 53.9832 31.0404 46.7471 31.0404C39.5111 31.0404 32.7344 33.797 27.6807 38.9656C22.6269 44.0193 19.7555 50.7959 19.7555 58.032C19.7555 65.268 22.5121 72.0447 27.6807 77.0984C32.7344 82.1522 39.5111 85.0236 46.7471 85.0236C53.9832 85.0236 60.7597 82.267 65.8135 77.0984L107.966 34.9455C114.169 28.7432 122.324 25.4124 131.053 25.4124C139.782 25.4124 148.052 28.8581 154.139 34.9455C160.342 41.1479 163.672 49.3028 163.672 58.032C163.672 66.7612 160.227 75.031 154.139 81.1184C148.052 87.2059 139.782 90.6516 131.053 90.6516Z" fill="#040404"/>
<path d="M131.053 104.779C119.108 104.779 107.048 100.185 97.9741 91.1111L101.994 87.0911C118.074 103.171 144.147 103.171 160.112 87.0911C176.192 71.011 176.192 44.9383 160.112 28.973C152.302 21.1627 142.079 16.9129 131.053 16.9129C120.027 16.9129 109.804 21.1627 101.994 28.973L59.8413 71.1258C56.3956 74.5716 51.6864 76.5242 46.7475 76.5242C41.8086 76.5242 37.0994 74.5716 33.6537 71.1258C30.2079 67.6801 28.2554 62.9709 28.2554 58.032C28.2554 53.0932 30.2079 48.384 33.6537 44.9383C37.0994 41.4925 41.8086 39.5399 46.7475 39.5399C51.6864 39.5399 56.3956 41.4925 59.8413 44.9383L55.8213 48.9583C53.4092 46.5463 50.1932 45.168 46.7475 45.168C43.3018 45.168 40.0857 46.5463 37.6737 48.9583C35.2617 51.3703 33.8834 54.5863 33.8834 58.032C33.8834 61.4778 35.2617 64.6938 37.6737 67.1058C40.0857 69.5178 43.3018 70.8961 46.7475 70.8961C50.1932 70.8961 53.4092 69.5178 55.8213 67.1058L97.9741 24.953C106.818 16.1089 118.534 11.2849 131.053 11.2849C143.573 11.2849 155.288 16.1089 164.132 24.953C172.976 33.797 177.8 45.5125 177.8 58.032C177.8 70.5516 172.976 82.2671 164.132 91.1111C155.058 100.185 143.113 104.779 131.053 104.779Z" fill="#040404"/>
<path d="M46.7472 104.779C34.2277 104.779 22.5121 99.9552 13.6681 91.1111C4.82402 82.2671 0 70.5516 0 58.032C0 45.5125 4.82402 33.797 13.6681 24.953C22.5121 16.1089 34.2277 11.2849 46.7472 11.2849C59.2667 11.2849 70.9822 16.1089 79.8262 24.953L75.8062 28.973C59.7261 12.8929 33.6534 12.8929 17.6881 28.973C1.608 45.0531 1.608 71.1259 17.6881 87.0911C25.4984 94.9014 35.7208 99.1512 46.7472 99.1512C57.7735 99.1512 67.9959 94.9014 75.8062 87.0911L117.959 44.9383C121.405 41.4925 126.114 39.5399 131.053 39.5399C135.992 39.5399 140.701 41.4925 144.147 44.9383C147.592 48.384 149.545 53.0932 149.545 58.032C149.545 62.9709 147.592 67.6801 144.147 71.1258C140.701 74.5716 135.992 76.5242 131.053 76.5242C126.114 76.5242 121.405 74.5716 117.959 71.1258L121.979 67.1058C124.391 69.5178 127.607 70.8961 131.053 70.8961C134.499 70.8961 137.715 69.5178 140.127 67.1058C142.539 64.6938 143.917 61.4778 143.917 58.032C143.917 54.5863 142.539 51.3703 140.127 48.9583C137.715 46.5463 134.499 45.168 131.053 45.168C127.607 45.168 124.391 46.5463 121.979 48.9583L79.8262 91.1111C70.9822 99.9552 59.2667 104.779 46.7472 104.779Z" fill="#040404"/>
</svg>
