<?xml version="1.0" encoding="utf-8"?>
<!-- Generator: Adobe Illustrator 24.2.1, SVG Export Plug-In . SVG Version: 6.00 Build 0)  -->
<svg version="1.1" id="Layer_1" xmlns="http://www.w3.org/2000/svg" xmlns:xlink="http://www.w3.org/1999/xlink" x="0px" y="0px"
	 viewBox="0 0 405 87.88" style="enable-background:new 0 0 405 87.88;" xml:space="preserve">
<style type="text/css">
	.st0{fill:#A7C947;}
</style>
<g>
	<g>
		<path d="M253.55,72.97V43.9h-5.9v-4.43h5.9v-1.02c0-1.8,0.28-3.39,0.85-4.78c0.56-1.39,1.38-2.56,2.43-3.51
			c1.06-0.95,2.35-1.67,3.87-2.15c1.52-0.48,3.23-0.73,5.14-0.73c1.47,0,2.94,0.18,4.39,0.53l-0.35,4.64
			c-0.48-0.08-1.03-0.15-1.64-0.2c-0.61-0.05-1.21-0.08-1.81-0.08c-2.07,0-3.67,0.54-4.8,1.63c-1.13,1.08-1.69,2.64-1.69,4.66v1.02
			h6.3v4.43h-6.3v29.07H253.55z"/>
		<path d="M143.61,61.85c0-1.05-0.18-1.98-0.54-2.79c-0.36-0.8-0.99-1.54-1.9-2.21c-0.91-0.67-2.14-1.3-3.68-1.89
			c-1.54-0.59-3.5-1.19-5.87-1.81c-2.49-0.64-4.74-1.37-6.75-2.18c-2.01-0.82-3.73-1.75-5.14-2.82c-1.42-1.06-2.5-2.28-3.26-3.64
			c-0.76-1.36-1.14-2.92-1.14-4.67c0-1.75,0.41-3.38,1.23-4.88c0.82-1.5,1.97-2.8,3.47-3.9c1.5-1.1,3.29-1.97,5.39-2.58
			c2.09-0.62,4.43-0.93,7.01-0.93c2.83,0,5.35,0.38,7.56,1.15c2.21,0.76,4.07,1.77,5.58,3.03c1.51,1.26,2.65,2.71,3.44,4.36
			c0.78,1.65,1.17,3.35,1.17,5.11h-6.66c0-1.26-0.22-2.42-0.67-3.5c-0.45-1.07-1.13-2-2.05-2.79c-0.92-0.78-2.07-1.39-3.45-1.83
			c-1.38-0.43-3.02-0.65-4.9-0.65c-1.77,0-3.31,0.19-4.63,0.56c-1.31,0.37-2.39,0.88-3.25,1.53c-0.85,0.65-1.48,1.42-1.9,2.31
			c-0.41,0.89-0.62,1.86-0.62,2.91c0,0.95,0.22,1.82,0.67,2.6c0.45,0.78,1.14,1.51,2.09,2.17c0.94,0.66,2.16,1.27,3.64,1.83
			c1.48,0.56,3.26,1.09,5.33,1.61c2.85,0.72,5.32,1.52,7.39,2.4c2.07,0.88,3.78,1.87,5.13,2.99c1.35,1.11,2.35,2.36,3,3.75
			c0.66,1.38,0.98,2.95,0.98,4.71c0,1.84-0.41,3.5-1.24,4.98c-0.83,1.49-2.01,2.76-3.54,3.81c-1.53,1.05-3.37,1.86-5.52,2.43
			c-2.15,0.57-4.55,0.85-7.2,0.85c-1.54,0-3.08-0.13-4.63-0.39c-1.54-0.26-3.02-0.64-4.44-1.16c-1.42-0.52-2.73-1.16-3.94-1.92
			c-1.21-0.76-2.26-1.65-3.16-2.66c-0.9-1.01-1.6-2.15-2.11-3.41c-0.51-1.26-0.76-2.64-0.76-4.15h6.66c0,1.55,0.34,2.87,1.02,3.98
			c0.68,1.1,1.59,2.02,2.73,2.74c1.14,0.72,2.45,1.25,3.94,1.59c1.48,0.34,3.04,0.51,4.68,0.51c3.5,0,6.18-0.64,8.04-1.92
			C142.68,65.8,143.61,64.05,143.61,61.85z"/>
		<path d="M169.92,69.18c1.13,0,2.21-0.16,3.25-0.5c1.04-0.33,1.95-0.78,2.74-1.36c0.79-0.58,1.44-1.26,1.93-2.06
			c0.49-0.79,0.79-1.66,0.88-2.58h6.04c-0.09,1.49-0.55,2.91-1.36,4.26c-0.82,1.35-1.89,2.54-3.23,3.56
			c-1.34,1.02-2.88,1.84-4.64,2.45c-1.76,0.61-3.63,0.91-5.61,0.91c-2.81,0-5.25-0.45-7.34-1.35s-3.82-2.11-5.2-3.64
			c-1.38-1.53-2.41-3.3-3.09-5.32c-0.68-2.02-1.02-4.16-1.02-6.41v-1.3c0-2.25,0.34-4.38,1.02-6.41c0.68-2.02,1.71-3.8,3.09-5.32
			c1.38-1.53,3.11-2.74,5.18-3.64c2.07-0.9,4.51-1.35,7.32-1.35c2.19,0,4.17,0.31,5.96,0.93c1.78,0.62,3.33,1.47,4.63,2.55
			c1.3,1.08,2.32,2.37,3.06,3.85c0.74,1.49,1.15,3.09,1.24,4.8h-6.04c-0.09-1.03-0.36-2-0.81-2.89c-0.45-0.9-1.05-1.68-1.81-2.35
			c-0.76-0.67-1.66-1.2-2.71-1.59c-1.05-0.39-2.22-0.59-3.5-0.59c-1.98,0-3.62,0.35-4.92,1.05c-1.3,0.7-2.35,1.63-3.14,2.77
			c-0.79,1.15-1.35,2.44-1.67,3.87c-0.32,1.43-0.48,2.87-0.48,4.32v1.3c0,1.49,0.16,2.95,0.48,4.38c0.32,1.43,0.87,2.72,1.66,3.85
			c0.78,1.14,1.83,2.05,3.14,2.76C166.26,68.83,167.92,69.18,169.92,69.18z"/>
		<path d="M208.66,68.38h23.82v4.86h-30.49V27.55h6.66V68.38z"/>
		<path d="M283.82,73.59c-2.6,0-4.96-0.4-7.06-1.21c-2.11-0.81-3.91-1.92-5.4-3.36c-1.5-1.43-2.65-3.14-3.45-5.12
			c-0.81-1.98-1.21-4.15-1.21-6.5v-1.3c0-2.72,0.45-5.16,1.36-7.31c0.91-2.15,2.12-3.95,3.64-5.42c1.52-1.47,3.26-2.58,5.21-3.36
			c1.96-0.77,3.99-1.16,6.11-1.16c2.67,0,4.97,0.42,6.91,1.25c1.93,0.84,3.53,1.99,4.78,3.45c1.25,1.47,2.18,3.2,2.78,5.2
			c0.6,2,0.9,4.18,0.9,6.53v2.57h-25.31c0.05,1.55,0.33,2.99,0.85,4.33c0.52,1.34,1.25,2.51,2.21,3.5c0.95,0.99,2.11,1.77,3.45,2.35
			c1.35,0.58,2.87,0.87,4.57,0.87c2.26,0,4.17-0.41,5.73-1.24c1.57-0.83,2.93-1.92,4.11-3.28l3.9,2.72c-0.6,0.83-1.32,1.63-2.18,2.4
			c-0.85,0.77-1.85,1.47-2.99,2.07c-1.14,0.61-2.45,1.09-3.92,1.46C287.35,73.41,285.69,73.59,283.82,73.59z M283.03,43.56
			c-1.29,0-2.48,0.21-3.56,0.63c-1.08,0.42-2.05,1.04-2.9,1.84c-0.85,0.8-1.56,1.81-2.12,3c-0.56,1.2-0.95,2.57-1.16,4.12H292v-0.43
			c-0.07-1.11-0.27-2.22-0.6-3.31c-0.33-1.09-0.85-2.07-1.55-2.94c-0.7-0.87-1.61-1.57-2.71-2.11
			C286.03,43.83,284.66,43.56,283.03,43.56z"/>
		<path d="M309.54,68.11h23.82v4.86h-30.49V27.28h6.66V68.11z"/>
		<path d="M359.65,72.97c-0.23-0.41-0.41-0.93-0.55-1.56c-0.14-0.63-0.25-1.28-0.35-1.97c-0.6,0.56-1.27,1.09-2.02,1.59
			c-0.75,0.51-1.57,0.95-2.45,1.33c-0.89,0.38-1.85,0.68-2.88,0.9c-1.04,0.22-2.13,0.32-3.28,0.32c-1.91,0-3.64-0.26-5.2-0.77
			c-1.55-0.52-2.88-1.22-3.97-2.11c-1.09-0.89-1.94-1.93-2.54-3.14c-0.6-1.21-0.9-2.5-0.9-3.88c0-1.8,0.39-3.38,1.17-4.75
			c0.78-1.37,1.9-2.52,3.37-3.45c1.46-0.93,3.23-1.63,5.3-2.11c2.07-0.47,4.39-0.71,6.94-0.71h6.35v-2.63c0-2-0.67-3.6-2-4.78
			c-1.34-1.19-3.3-1.78-5.9-1.78c-1.2,0-2.29,0.14-3.28,0.43c-0.99,0.29-1.84,0.68-2.54,1.16c-0.7,0.49-1.25,1.05-1.64,1.69
			c-0.39,0.64-0.59,1.31-0.59,2.01h-6.42c0-1.2,0.35-2.38,1.05-3.56c0.7-1.18,1.7-2.23,2.99-3.17c1.29-0.94,2.85-1.7,4.68-2.29
			c1.83-0.59,3.87-0.88,6.13-0.88c2.03,0,3.9,0.23,5.61,0.7c1.71,0.46,3.18,1.17,4.4,2.11c1.22,0.94,2.18,2.11,2.87,3.51
			c0.69,1.4,1.04,3.04,1.04,4.92v15.57c0,1.14,0.11,2.33,0.33,3.58c0.22,1.25,0.55,2.33,0.98,3.23v0.5H359.65z M349.05,68.6
			c1.15,0,2.23-0.14,3.25-0.43c1.01-0.29,1.93-0.67,2.76-1.13c0.83-0.46,1.55-1,2.16-1.59c0.61-0.6,1.09-1.22,1.43-1.86v-6.87h-5.32
			c-3.66,0-6.48,0.51-8.46,1.53c-1.98,1.02-2.97,2.56-2.97,4.63c0,0.81,0.15,1.56,0.45,2.26c0.3,0.7,0.75,1.31,1.36,1.81
			c0.61,0.51,1.36,0.91,2.24,1.21C346.85,68.46,347.88,68.6,349.05,68.6z"/>
		<path d="M402.5,56.59c0,2.46-0.32,4.72-0.97,6.79c-0.64,2.07-1.59,3.87-2.83,5.39c-1.24,1.52-2.76,2.7-4.56,3.54
			c-1.8,0.85-3.84,1.27-6.15,1.27c-2.46,0-4.59-0.39-6.39-1.16c-1.8-0.77-3.31-1.88-4.56-3.33l-0.31,3.87h-5.87V27.28h6.39v15.88
			c1.24-1.38,2.74-2.45,4.49-3.19c1.75-0.74,3.81-1.11,6.18-1.11c2.35,0,4.42,0.41,6.23,1.24c1.81,0.83,3.33,1.99,4.56,3.48
			c1.23,1.5,2.17,3.29,2.81,5.39c0.64,2.09,0.97,4.42,0.97,6.98V56.59z M396.11,55.94c0-1.67-0.17-3.25-0.52-4.72
			c-0.35-1.48-0.9-2.77-1.67-3.88s-1.78-2-3.02-2.65s-2.76-0.98-4.56-0.98c-1.17,0-2.23,0.13-3.18,0.4
			c-0.94,0.27-1.79,0.64-2.54,1.11c-0.75,0.48-1.4,1.03-1.95,1.67c-0.55,0.64-1.02,1.33-1.42,2.07v14.49
			c0.41,0.74,0.9,1.43,1.47,2.07c0.56,0.64,1.22,1.2,1.97,1.67c0.75,0.47,1.59,0.85,2.54,1.11c0.94,0.27,2,0.4,3.18,0.4
			c1.73,0,3.2-0.32,4.42-0.96c1.22-0.64,2.22-1.51,3-2.6c0.78-1.09,1.36-2.38,1.73-3.85c0.37-1.48,0.55-3.05,0.55-4.72V55.94z"/>
		<g>
			<path d="M196.09,73.24h-6.39V39.74h6.39V73.24z"/>
			<circle cx="192.89" cy="31.31" r="3.76"/>
		</g>
		<g>
			<circle cx="240.3" cy="31.04" r="3.76"/>
			<path d="M243.5,72.97h-6.39V39.48h6.39V72.97z"/>
		</g>
	</g>
	<g>
		<g>
			<path class="st0" d="M57.24,51.24c0.65-1.42,0.97-2.94,0.96-4.47c-0.01-1.02-0.17-2.04-0.49-3.04c0,0,0,0,0,0
				c-0.03-0.08-0.05-0.16-0.08-0.24L57.6,43.4c-0.02-0.05-0.03-0.1-0.05-0.15c-0.01-0.02-0.02-0.04-0.03-0.07
				c-0.62-1.98-2.09-3.78-3.79-5.86c-2.09-2.55-4.45-5.43-5.68-9.32c-1.2-3.78-0.91-7.3-0.66-10.4c0.22-2.65,0.42-5.16-0.31-7.47
				c0,0,0-0.01,0-0.01c0-0.02-0.01-0.04-0.01-0.06c-0.01-0.05-0.03-0.1-0.04-0.15L47,9.84c-0.02-0.08-0.05-0.16-0.07-0.25
				c-0.05-0.17-0.11-0.34-0.17-0.5c-0.01-0.02-0.02-0.05-0.03-0.07c-0.05-0.14-0.11-0.28-0.17-0.42c0-0.01,0-0.01-0.01-0.02
				c-0.95-2.2-2.62-4-4.77-5.12C39.61,2.33,37.18,2,34.83,2.49c0,0,0,0,0,0c-0.15,0.03-0.31,0.07-0.46,0.11
				c-0.02,0.01-0.04,0.01-0.06,0.01c-0.17,0.04-0.34,0.09-0.51,0.15c-2.67,0.84-4.85,2.67-6.13,5.15c-0.16,0.31-0.31,0.63-0.43,0.95
				c-0.51,1.28-0.77,2.63-0.75,3.99c0.01,1.02,0.17,2.04,0.49,3.04c0,0,0,0,0,0.01c0.03,0.08,0.05,0.16,0.08,0.24l0.03,0.08
				c0.01,0.02,0.01,0.03,0.02,0.05c0.01,0.02,0.02,0.05,0.03,0.07c0.01,0.02,0.01,0.03,0.02,0.05l0.02,0.05
				c0.61,1.97,2.08,3.77,3.79,5.85c2.09,2.55,4.45,5.44,5.68,9.33c1.23,3.9,0.96,7.65,0.71,10.96c-0.2,2.67-0.37,4.97,0.25,6.91
				c0,0,0,0.01,0,0.01c0.01,0.02,0.01,0.04,0.02,0.06c0.01,0.05,0.03,0.1,0.04,0.15l0.02,0.08c0.02,0.08,0.05,0.16,0.07,0.25
				c0.04,0.14,0.09,0.28,0.14,0.41c1.53,4.22,5.54,6.9,9.85,6.9c1.04,0,2.1-0.16,3.15-0.49c2.67-0.84,4.85-2.67,6.13-5.15
				C57.1,51.56,57.17,51.4,57.24,51.24z"/>
			<path class="st0" d="M88.66,24.93c-1.78-2.8-4.55-4.73-7.78-5.45c-6.68-1.48-13.32,2.76-14.8,9.44c-0.02,0.1-0.04,0.2-0.06,0.3
				L66,29.32c-0.01,0.07-0.03,0.14-0.04,0.21l0,0.01c0,0.02,0,0.03-0.01,0.05c0,0,0,0.01,0,0.01c-0.54,2.39-0.09,5.11,0.42,8.26
				c0.63,3.88,1.35,8.27,0.3,13.02c-1.05,4.76-3.57,8.46-5.79,11.73c-1.79,2.63-3.33,4.9-3.84,7.26c0,0,0,0.01,0,0.01
				c-0.01,0.02-0.01,0.04-0.02,0.06c-0.02,0.06-0.03,0.12-0.05,0.18l-0.03,0.1c-0.02,0.1-0.05,0.2-0.07,0.3
				c-0.72,3.24-0.13,6.56,1.65,9.35c1.78,2.8,4.55,4.73,7.78,5.45c0.9,0.2,1.81,0.3,2.71,0.3c2.34,0,4.63-0.66,6.65-1.95
				c0.7-0.45,1.34-0.95,1.93-1.51c1.76-1.68,2.98-3.84,3.52-6.27c0,0,0,0,0,0c0.02-0.1,0.04-0.2,0.06-0.29l0.02-0.1
				c0.01-0.07,0.03-0.14,0.04-0.21l0-0.01c0-0.02,0.01-0.04,0.01-0.05c0,0,0,0,0,0c0.54-2.4,0.09-5.12-0.42-8.28
				c-0.63-3.87-1.35-8.26-0.3-13c1.02-4.62,3.41-8.08,5.52-11.12c1.8-2.6,3.5-5.06,4.12-7.86c0-0.01,0-0.01,0.01-0.02
				c0.01-0.02,0.01-0.04,0.02-0.06c0.02-0.06,0.03-0.12,0.05-0.18l0.03-0.1c0.02-0.1,0.05-0.2,0.07-0.3
				C91.03,31.04,90.45,27.72,88.66,24.93z"/>
			<path class="st0" d="M18.82,29.34c-2.65-1.38-5.67-1.64-8.51-0.74c-2.84,0.9-5.17,2.85-6.54,5.5c-1.38,2.65-1.64,5.67-0.74,8.51
				c0.9,2.84,2.85,5.17,5.5,6.54c1.61,0.84,3.37,1.26,5.14,1.26c1.13,0,2.27-0.17,3.37-0.52c2.84-0.9,5.17-2.85,6.54-5.5
				c1.38-2.65,1.64-5.67,0.74-8.51C23.42,33.04,21.47,30.71,18.82,29.34z"/>
		</g>
	</g>
</g>
</svg>
