<svg width="128" height="128" viewBox="0 0 128 128" fill="none" xmlns="http://www.w3.org/2000/svg">
<path d="M0 25.5996C0 11.4613 11.4613 0 25.5996 0H102.398C116.537 0 127.998 11.4613 127.998 25.5996V102.398C127.998 116.537 116.537 127.998 102.398 127.998H25.5996C11.4613 127.998 0 116.537 0 102.398V25.5996Z" fill="white"/>
<path d="M120.501 7.5L7.49841 120.502C12.131 125.135 18.5309 128 25.6001 128H102.399C116.537 128 127.998 116.539 127.998 102.4V25.6017C127.998 18.5325 125.133 12.1326 120.501 7.5Z" fill="#041C39"/>
<path d="M108.798 91.1998C108.798 100.92 100.918 108.8 91.1984 108.8C81.4783 108.8 73.5986 100.92 73.5986 91.1998C73.5986 81.4798 81.4783 73.6001 91.1984 73.6001C100.918 73.6001 108.798 81.4798 108.798 91.1998Z" fill="white"/>
<path fill-rule="evenodd" clip-rule="evenodd" d="M26.7634 44.7828L26.8376 45.338C27.0529 46.9477 27.466 48.0595 28.0146 48.7536C29.0326 50.0338 30.8386 50.7588 33.6354 50.7588C35.3249 50.7588 36.6476 50.565 37.6308 50.2055C38.5663 49.8595 39.2181 49.3842 39.639 48.8059C40.0577 48.2304 40.2847 47.5024 40.2847 46.5834C40.2847 45.6018 39.8891 44.8735 39.0552 44.3321C38.132 43.7498 36.6226 43.2017 34.4704 42.7132L34.4671 42.7124L30.751 41.8481C27.0918 40.9905 24.4574 40.0385 22.949 38.9552C20.375 37.1277 19.1316 34.282 19.1316 30.5569C19.1316 27.1284 20.3425 24.2494 22.7628 21.9669C25.2095 19.6595 28.7513 18.5576 33.2781 18.5576C37.1028 18.5576 40.3981 19.6154 43.1281 21.7546C45.9246 23.9165 47.3636 27.0564 47.4957 31.0792L47.5174 31.7402H39.2011L39.1662 31.1373C39.0501 29.1367 38.2307 27.799 36.7397 26.9972C35.7135 26.4508 34.4031 26.1593 32.7779 26.1593C30.9718 26.1593 29.6057 26.5374 28.6192 27.2287C27.6683 27.8952 27.2006 28.7995 27.2006 30.0136C27.2006 31.0893 27.6377 31.8475 28.5482 32.3734L28.557 32.3784C29.1763 32.7494 30.6068 33.233 32.9551 33.8126L39.0065 35.3191C41.7036 35.9888 43.807 36.8996 45.26 38.0868C47.5349 39.9449 48.6395 42.6223 48.6395 46.0155C48.6395 49.5216 47.3323 52.461 44.7344 54.7893C42.1344 57.117 38.4993 58.237 33.9213 58.237C29.2509 58.237 25.4929 57.1354 22.7237 54.8562C19.9391 52.5469 18.5599 49.3755 18.5599 45.4228V44.7828H26.7634Z" fill="#041C39"/>
</svg>
